<mxfile host="app.diagrams.net" modified="2024-03-21T14:56:06.197Z" agent="Mozilla/5.0 (Windows NT 10.0; Win64; x64) AppleWebKit/537.36 (KHTML, like Gecko) Chrome/123.0.0.0 Safari/537.36" etag="WqiOs9kTnUVP4xJgKosc" version="24.0.7" type="device">
  <diagram name="第 1 页" id="uchxsGg7yy1bAF5FOZZ5">
    <mxGraphModel dx="1434" dy="833" grid="1" gridSize="10" guides="1" tooltips="1" connect="1" arrows="1" fold="1" page="1" pageScale="1" pageWidth="827" pageHeight="1169" math="0" shadow="0">
      <root>
        <mxCell id="0" />
        <mxCell id="1" parent="0" />
        <mxCell id="2pr_pSfiqx2FBNgIM7GL-116" value="" style="shape=table;startSize=0;container=1;collapsible=0;childLayout=tableLayout;fontSize=16;strokeColor=default;align=center;verticalAlign=middle;fontFamily=Helvetica;fontColor=default;fillColor=default;" vertex="1" parent="1">
          <mxGeometry x="54" y="250" width="720" height="120" as="geometry" />
        </mxCell>
        <mxCell id="2pr_pSfiqx2FBNgIM7GL-117" value="" style="shape=tableRow;horizontal=0;startSize=0;swimlaneHead=0;swimlaneBody=0;strokeColor=inherit;top=0;left=0;bottom=0;right=0;collapsible=0;dropTarget=0;fillColor=none;points=[[0,0.5],[1,0.5]];portConstraint=eastwest;fontSize=16;align=center;verticalAlign=middle;fontFamily=Helvetica;fontColor=default;" vertex="1" parent="2pr_pSfiqx2FBNgIM7GL-116">
          <mxGeometry width="720" height="40" as="geometry" />
        </mxCell>
        <mxCell id="2pr_pSfiqx2FBNgIM7GL-118" value="" style="shape=partialRectangle;html=1;whiteSpace=wrap;connectable=0;strokeColor=#b85450;overflow=hidden;fillColor=#f8cecc;top=0;left=0;bottom=0;right=0;pointerEvents=1;fontSize=16;align=center;verticalAlign=middle;fontFamily=Helvetica;" vertex="1" parent="2pr_pSfiqx2FBNgIM7GL-117">
          <mxGeometry width="60" height="40" as="geometry">
            <mxRectangle width="60" height="40" as="alternateBounds" />
          </mxGeometry>
        </mxCell>
        <mxCell id="2pr_pSfiqx2FBNgIM7GL-119" value="" style="shape=partialRectangle;html=1;whiteSpace=wrap;connectable=0;strokeColor=#b85450;overflow=hidden;fillColor=#f8cecc;top=0;left=0;bottom=0;right=0;pointerEvents=1;fontSize=16;align=center;verticalAlign=middle;fontFamily=Helvetica;" vertex="1" parent="2pr_pSfiqx2FBNgIM7GL-117">
          <mxGeometry x="60" width="60" height="40" as="geometry">
            <mxRectangle width="60" height="40" as="alternateBounds" />
          </mxGeometry>
        </mxCell>
        <mxCell id="2pr_pSfiqx2FBNgIM7GL-120" value="" style="shape=partialRectangle;html=1;whiteSpace=wrap;connectable=0;strokeColor=#b85450;overflow=hidden;fillColor=#f8cecc;top=0;left=0;bottom=0;right=0;pointerEvents=1;fontSize=16;align=center;verticalAlign=middle;fontFamily=Helvetica;" vertex="1" parent="2pr_pSfiqx2FBNgIM7GL-117">
          <mxGeometry x="120" width="60" height="40" as="geometry">
            <mxRectangle width="60" height="40" as="alternateBounds" />
          </mxGeometry>
        </mxCell>
        <mxCell id="2pr_pSfiqx2FBNgIM7GL-129" style="shape=partialRectangle;html=1;whiteSpace=wrap;connectable=0;strokeColor=#6c8ebf;overflow=hidden;fillColor=#dae8fc;top=0;left=0;bottom=0;right=0;pointerEvents=1;fontSize=16;align=center;verticalAlign=middle;fontFamily=Helvetica;" vertex="1" parent="2pr_pSfiqx2FBNgIM7GL-117">
          <mxGeometry x="180" width="60" height="40" as="geometry">
            <mxRectangle width="60" height="40" as="alternateBounds" />
          </mxGeometry>
        </mxCell>
        <mxCell id="2pr_pSfiqx2FBNgIM7GL-132" style="shape=partialRectangle;html=1;whiteSpace=wrap;connectable=0;strokeColor=#6c8ebf;overflow=hidden;fillColor=#dae8fc;top=0;left=0;bottom=0;right=0;pointerEvents=1;fontSize=16;align=center;verticalAlign=middle;fontFamily=Helvetica;" vertex="1" parent="2pr_pSfiqx2FBNgIM7GL-117">
          <mxGeometry x="240" width="60" height="40" as="geometry">
            <mxRectangle width="60" height="40" as="alternateBounds" />
          </mxGeometry>
        </mxCell>
        <mxCell id="2pr_pSfiqx2FBNgIM7GL-135" style="shape=partialRectangle;html=1;whiteSpace=wrap;connectable=0;strokeColor=#6c8ebf;overflow=hidden;fillColor=#dae8fc;top=0;left=0;bottom=0;right=0;pointerEvents=1;fontSize=16;align=center;verticalAlign=middle;fontFamily=Helvetica;" vertex="1" parent="2pr_pSfiqx2FBNgIM7GL-117">
          <mxGeometry x="300" width="60" height="40" as="geometry">
            <mxRectangle width="60" height="40" as="alternateBounds" />
          </mxGeometry>
        </mxCell>
        <mxCell id="2pr_pSfiqx2FBNgIM7GL-138" style="shape=partialRectangle;html=1;whiteSpace=wrap;connectable=0;strokeColor=#6c8ebf;overflow=hidden;fillColor=#dae8fc;top=0;left=0;bottom=0;right=0;pointerEvents=1;fontSize=16;align=center;verticalAlign=middle;fontFamily=Helvetica;" vertex="1" parent="2pr_pSfiqx2FBNgIM7GL-117">
          <mxGeometry x="360" width="60" height="40" as="geometry">
            <mxRectangle width="60" height="40" as="alternateBounds" />
          </mxGeometry>
        </mxCell>
        <mxCell id="2pr_pSfiqx2FBNgIM7GL-141" style="shape=partialRectangle;html=1;whiteSpace=wrap;connectable=0;strokeColor=#6c8ebf;overflow=hidden;fillColor=#dae8fc;top=0;left=0;bottom=0;right=0;pointerEvents=1;fontSize=16;align=center;verticalAlign=middle;fontFamily=Helvetica;" vertex="1" parent="2pr_pSfiqx2FBNgIM7GL-117">
          <mxGeometry x="420" width="60" height="40" as="geometry">
            <mxRectangle width="60" height="40" as="alternateBounds" />
          </mxGeometry>
        </mxCell>
        <mxCell id="2pr_pSfiqx2FBNgIM7GL-144" style="shape=partialRectangle;html=1;whiteSpace=wrap;connectable=0;strokeColor=#6c8ebf;overflow=hidden;fillColor=#dae8fc;top=0;left=0;bottom=0;right=0;pointerEvents=1;fontSize=16;align=center;verticalAlign=middle;fontFamily=Helvetica;" vertex="1" parent="2pr_pSfiqx2FBNgIM7GL-117">
          <mxGeometry x="480" width="60" height="40" as="geometry">
            <mxRectangle width="60" height="40" as="alternateBounds" />
          </mxGeometry>
        </mxCell>
        <mxCell id="2pr_pSfiqx2FBNgIM7GL-147" style="shape=partialRectangle;html=1;whiteSpace=wrap;connectable=0;strokeColor=#6c8ebf;overflow=hidden;fillColor=#dae8fc;top=0;left=0;bottom=0;right=0;pointerEvents=1;fontSize=16;align=center;verticalAlign=middle;fontFamily=Helvetica;" vertex="1" parent="2pr_pSfiqx2FBNgIM7GL-117">
          <mxGeometry x="540" width="60" height="40" as="geometry">
            <mxRectangle width="60" height="40" as="alternateBounds" />
          </mxGeometry>
        </mxCell>
        <mxCell id="2pr_pSfiqx2FBNgIM7GL-150" style="shape=partialRectangle;html=1;whiteSpace=wrap;connectable=0;strokeColor=#6c8ebf;overflow=hidden;fillColor=#dae8fc;top=0;left=0;bottom=0;right=0;pointerEvents=1;fontSize=16;align=center;verticalAlign=middle;fontFamily=Helvetica;" vertex="1" parent="2pr_pSfiqx2FBNgIM7GL-117">
          <mxGeometry x="600" width="60" height="40" as="geometry">
            <mxRectangle width="60" height="40" as="alternateBounds" />
          </mxGeometry>
        </mxCell>
        <mxCell id="2pr_pSfiqx2FBNgIM7GL-153" style="shape=partialRectangle;html=1;whiteSpace=wrap;connectable=0;strokeColor=#6c8ebf;overflow=hidden;fillColor=#dae8fc;top=0;left=0;bottom=0;right=0;pointerEvents=1;fontSize=16;align=center;verticalAlign=middle;fontFamily=Helvetica;" vertex="1" parent="2pr_pSfiqx2FBNgIM7GL-117">
          <mxGeometry x="660" width="60" height="40" as="geometry">
            <mxRectangle width="60" height="40" as="alternateBounds" />
          </mxGeometry>
        </mxCell>
        <mxCell id="2pr_pSfiqx2FBNgIM7GL-121" value="" style="shape=tableRow;horizontal=0;startSize=0;swimlaneHead=0;swimlaneBody=0;strokeColor=inherit;top=0;left=0;bottom=0;right=0;collapsible=0;dropTarget=0;fillColor=none;points=[[0,0.5],[1,0.5]];portConstraint=eastwest;fontSize=16;align=center;verticalAlign=middle;fontFamily=Helvetica;fontColor=default;" vertex="1" parent="2pr_pSfiqx2FBNgIM7GL-116">
          <mxGeometry y="40" width="720" height="40" as="geometry" />
        </mxCell>
        <mxCell id="2pr_pSfiqx2FBNgIM7GL-122" value="" style="shape=partialRectangle;html=1;whiteSpace=wrap;connectable=0;strokeColor=#6c8ebf;overflow=hidden;fillColor=#dae8fc;top=0;left=0;bottom=0;right=0;pointerEvents=1;fontSize=16;align=center;verticalAlign=middle;fontFamily=Helvetica;" vertex="1" parent="2pr_pSfiqx2FBNgIM7GL-121">
          <mxGeometry width="60" height="40" as="geometry">
            <mxRectangle width="60" height="40" as="alternateBounds" />
          </mxGeometry>
        </mxCell>
        <mxCell id="2pr_pSfiqx2FBNgIM7GL-123" value="" style="shape=partialRectangle;html=1;whiteSpace=wrap;connectable=0;strokeColor=#6c8ebf;overflow=hidden;fillColor=#dae8fc;top=0;left=0;bottom=0;right=0;pointerEvents=1;fontSize=16;align=center;verticalAlign=middle;fontFamily=Helvetica;" vertex="1" parent="2pr_pSfiqx2FBNgIM7GL-121">
          <mxGeometry x="60" width="60" height="40" as="geometry">
            <mxRectangle width="60" height="40" as="alternateBounds" />
          </mxGeometry>
        </mxCell>
        <mxCell id="2pr_pSfiqx2FBNgIM7GL-124" value="" style="shape=partialRectangle;html=1;whiteSpace=wrap;connectable=0;strokeColor=#6c8ebf;overflow=hidden;fillColor=#dae8fc;top=0;left=0;bottom=0;right=0;pointerEvents=1;fontSize=16;align=center;verticalAlign=middle;fontFamily=Helvetica;" vertex="1" parent="2pr_pSfiqx2FBNgIM7GL-121">
          <mxGeometry x="120" width="60" height="40" as="geometry">
            <mxRectangle width="60" height="40" as="alternateBounds" />
          </mxGeometry>
        </mxCell>
        <mxCell id="2pr_pSfiqx2FBNgIM7GL-130" style="shape=partialRectangle;html=1;whiteSpace=wrap;connectable=0;strokeColor=#b85450;overflow=hidden;fillColor=#f8cecc;top=0;left=0;bottom=0;right=0;pointerEvents=1;fontSize=16;align=center;verticalAlign=middle;fontFamily=Helvetica;" vertex="1" parent="2pr_pSfiqx2FBNgIM7GL-121">
          <mxGeometry x="180" width="60" height="40" as="geometry">
            <mxRectangle width="60" height="40" as="alternateBounds" />
          </mxGeometry>
        </mxCell>
        <mxCell id="2pr_pSfiqx2FBNgIM7GL-133" style="shape=partialRectangle;html=1;whiteSpace=wrap;connectable=0;strokeColor=#b85450;overflow=hidden;fillColor=#f8cecc;top=0;left=0;bottom=0;right=0;pointerEvents=1;fontSize=16;align=center;verticalAlign=middle;fontFamily=Helvetica;" vertex="1" parent="2pr_pSfiqx2FBNgIM7GL-121">
          <mxGeometry x="240" width="60" height="40" as="geometry">
            <mxRectangle width="60" height="40" as="alternateBounds" />
          </mxGeometry>
        </mxCell>
        <mxCell id="2pr_pSfiqx2FBNgIM7GL-136" style="shape=partialRectangle;html=1;whiteSpace=wrap;connectable=0;strokeColor=#b85450;overflow=hidden;fillColor=#f8cecc;top=0;left=0;bottom=0;right=0;pointerEvents=1;fontSize=16;align=center;verticalAlign=middle;fontFamily=Helvetica;" vertex="1" parent="2pr_pSfiqx2FBNgIM7GL-121">
          <mxGeometry x="300" width="60" height="40" as="geometry">
            <mxRectangle width="60" height="40" as="alternateBounds" />
          </mxGeometry>
        </mxCell>
        <mxCell id="2pr_pSfiqx2FBNgIM7GL-139" style="shape=partialRectangle;html=1;whiteSpace=wrap;connectable=0;strokeColor=inherit;overflow=hidden;fillColor=none;top=0;left=0;bottom=0;right=0;pointerEvents=1;fontSize=16;align=center;verticalAlign=middle;fontFamily=Helvetica;fontColor=default;" vertex="1" parent="2pr_pSfiqx2FBNgIM7GL-121">
          <mxGeometry x="360" width="60" height="40" as="geometry">
            <mxRectangle width="60" height="40" as="alternateBounds" />
          </mxGeometry>
        </mxCell>
        <mxCell id="2pr_pSfiqx2FBNgIM7GL-142" style="shape=partialRectangle;html=1;whiteSpace=wrap;connectable=0;strokeColor=inherit;overflow=hidden;fillColor=none;top=0;left=0;bottom=0;right=0;pointerEvents=1;fontSize=16;align=center;verticalAlign=middle;fontFamily=Helvetica;fontColor=default;" vertex="1" parent="2pr_pSfiqx2FBNgIM7GL-121">
          <mxGeometry x="420" width="60" height="40" as="geometry">
            <mxRectangle width="60" height="40" as="alternateBounds" />
          </mxGeometry>
        </mxCell>
        <mxCell id="2pr_pSfiqx2FBNgIM7GL-145" style="shape=partialRectangle;html=1;whiteSpace=wrap;connectable=0;strokeColor=inherit;overflow=hidden;fillColor=none;top=0;left=0;bottom=0;right=0;pointerEvents=1;fontSize=16;align=center;verticalAlign=middle;fontFamily=Helvetica;fontColor=default;" vertex="1" parent="2pr_pSfiqx2FBNgIM7GL-121">
          <mxGeometry x="480" width="60" height="40" as="geometry">
            <mxRectangle width="60" height="40" as="alternateBounds" />
          </mxGeometry>
        </mxCell>
        <mxCell id="2pr_pSfiqx2FBNgIM7GL-148" style="shape=partialRectangle;html=1;whiteSpace=wrap;connectable=0;strokeColor=inherit;overflow=hidden;fillColor=none;top=0;left=0;bottom=0;right=0;pointerEvents=1;fontSize=16;align=center;verticalAlign=middle;fontFamily=Helvetica;fontColor=default;" vertex="1" parent="2pr_pSfiqx2FBNgIM7GL-121">
          <mxGeometry x="540" width="60" height="40" as="geometry">
            <mxRectangle width="60" height="40" as="alternateBounds" />
          </mxGeometry>
        </mxCell>
        <mxCell id="2pr_pSfiqx2FBNgIM7GL-151" style="shape=partialRectangle;html=1;whiteSpace=wrap;connectable=0;strokeColor=inherit;overflow=hidden;fillColor=none;top=0;left=0;bottom=0;right=0;pointerEvents=1;fontSize=16;align=center;verticalAlign=middle;fontFamily=Helvetica;fontColor=default;" vertex="1" parent="2pr_pSfiqx2FBNgIM7GL-121">
          <mxGeometry x="600" width="60" height="40" as="geometry">
            <mxRectangle width="60" height="40" as="alternateBounds" />
          </mxGeometry>
        </mxCell>
        <mxCell id="2pr_pSfiqx2FBNgIM7GL-154" style="shape=partialRectangle;html=1;whiteSpace=wrap;connectable=0;strokeColor=inherit;overflow=hidden;fillColor=none;top=0;left=0;bottom=0;right=0;pointerEvents=1;fontSize=16;align=center;verticalAlign=middle;fontFamily=Helvetica;fontColor=default;" vertex="1" parent="2pr_pSfiqx2FBNgIM7GL-121">
          <mxGeometry x="660" width="60" height="40" as="geometry">
            <mxRectangle width="60" height="40" as="alternateBounds" />
          </mxGeometry>
        </mxCell>
        <mxCell id="2pr_pSfiqx2FBNgIM7GL-125" value="" style="shape=tableRow;horizontal=0;startSize=0;swimlaneHead=0;swimlaneBody=0;strokeColor=inherit;top=0;left=0;bottom=0;right=0;collapsible=0;dropTarget=0;fillColor=none;points=[[0,0.5],[1,0.5]];portConstraint=eastwest;fontSize=16;align=center;verticalAlign=middle;fontFamily=Helvetica;fontColor=default;" vertex="1" parent="2pr_pSfiqx2FBNgIM7GL-116">
          <mxGeometry y="80" width="720" height="40" as="geometry" />
        </mxCell>
        <mxCell id="2pr_pSfiqx2FBNgIM7GL-126" value="" style="shape=partialRectangle;html=1;whiteSpace=wrap;connectable=0;strokeColor=#6c8ebf;overflow=hidden;fillColor=#dae8fc;top=0;left=0;bottom=0;right=0;pointerEvents=1;fontSize=16;align=center;verticalAlign=middle;fontFamily=Helvetica;" vertex="1" parent="2pr_pSfiqx2FBNgIM7GL-125">
          <mxGeometry width="60" height="40" as="geometry">
            <mxRectangle width="60" height="40" as="alternateBounds" />
          </mxGeometry>
        </mxCell>
        <mxCell id="2pr_pSfiqx2FBNgIM7GL-127" value="" style="shape=partialRectangle;html=1;whiteSpace=wrap;connectable=0;strokeColor=#6c8ebf;overflow=hidden;fillColor=#dae8fc;top=0;left=0;bottom=0;right=0;pointerEvents=1;fontSize=16;align=center;verticalAlign=middle;fontFamily=Helvetica;" vertex="1" parent="2pr_pSfiqx2FBNgIM7GL-125">
          <mxGeometry x="60" width="60" height="40" as="geometry">
            <mxRectangle width="60" height="40" as="alternateBounds" />
          </mxGeometry>
        </mxCell>
        <mxCell id="2pr_pSfiqx2FBNgIM7GL-128" value="" style="shape=partialRectangle;html=1;whiteSpace=wrap;connectable=0;strokeColor=#6c8ebf;overflow=hidden;fillColor=#dae8fc;top=0;left=0;bottom=0;right=0;pointerEvents=1;fontSize=16;align=center;verticalAlign=middle;fontFamily=Helvetica;" vertex="1" parent="2pr_pSfiqx2FBNgIM7GL-125">
          <mxGeometry x="120" width="60" height="40" as="geometry">
            <mxRectangle width="60" height="40" as="alternateBounds" />
          </mxGeometry>
        </mxCell>
        <mxCell id="2pr_pSfiqx2FBNgIM7GL-131" style="shape=partialRectangle;html=1;whiteSpace=wrap;connectable=0;strokeColor=#6c8ebf;overflow=hidden;fillColor=#dae8fc;top=0;left=0;bottom=0;right=0;pointerEvents=1;fontSize=16;align=center;verticalAlign=middle;fontFamily=Helvetica;" vertex="1" parent="2pr_pSfiqx2FBNgIM7GL-125">
          <mxGeometry x="180" width="60" height="40" as="geometry">
            <mxRectangle width="60" height="40" as="alternateBounds" />
          </mxGeometry>
        </mxCell>
        <mxCell id="2pr_pSfiqx2FBNgIM7GL-134" style="shape=partialRectangle;html=1;whiteSpace=wrap;connectable=0;strokeColor=#6c8ebf;overflow=hidden;fillColor=#dae8fc;top=0;left=0;bottom=0;right=0;pointerEvents=1;fontSize=16;align=center;verticalAlign=middle;fontFamily=Helvetica;" vertex="1" parent="2pr_pSfiqx2FBNgIM7GL-125">
          <mxGeometry x="240" width="60" height="40" as="geometry">
            <mxRectangle width="60" height="40" as="alternateBounds" />
          </mxGeometry>
        </mxCell>
        <mxCell id="2pr_pSfiqx2FBNgIM7GL-137" style="shape=partialRectangle;html=1;whiteSpace=wrap;connectable=0;strokeColor=#6c8ebf;overflow=hidden;fillColor=#dae8fc;top=0;left=0;bottom=0;right=0;pointerEvents=1;fontSize=16;align=center;verticalAlign=middle;fontFamily=Helvetica;" vertex="1" parent="2pr_pSfiqx2FBNgIM7GL-125">
          <mxGeometry x="300" width="60" height="40" as="geometry">
            <mxRectangle width="60" height="40" as="alternateBounds" />
          </mxGeometry>
        </mxCell>
        <mxCell id="2pr_pSfiqx2FBNgIM7GL-140" style="shape=partialRectangle;html=1;whiteSpace=wrap;connectable=0;strokeColor=inherit;overflow=hidden;fillColor=none;top=0;left=0;bottom=0;right=0;pointerEvents=1;fontSize=16;align=center;verticalAlign=middle;fontFamily=Helvetica;fontColor=default;" vertex="1" parent="2pr_pSfiqx2FBNgIM7GL-125">
          <mxGeometry x="360" width="60" height="40" as="geometry">
            <mxRectangle width="60" height="40" as="alternateBounds" />
          </mxGeometry>
        </mxCell>
        <mxCell id="2pr_pSfiqx2FBNgIM7GL-143" style="shape=partialRectangle;html=1;whiteSpace=wrap;connectable=0;strokeColor=inherit;overflow=hidden;fillColor=none;top=0;left=0;bottom=0;right=0;pointerEvents=1;fontSize=16;align=center;verticalAlign=middle;fontFamily=Helvetica;fontColor=default;" vertex="1" parent="2pr_pSfiqx2FBNgIM7GL-125">
          <mxGeometry x="420" width="60" height="40" as="geometry">
            <mxRectangle width="60" height="40" as="alternateBounds" />
          </mxGeometry>
        </mxCell>
        <mxCell id="2pr_pSfiqx2FBNgIM7GL-146" style="shape=partialRectangle;html=1;whiteSpace=wrap;connectable=0;strokeColor=inherit;overflow=hidden;fillColor=none;top=0;left=0;bottom=0;right=0;pointerEvents=1;fontSize=16;align=center;verticalAlign=middle;fontFamily=Helvetica;fontColor=default;" vertex="1" parent="2pr_pSfiqx2FBNgIM7GL-125">
          <mxGeometry x="480" width="60" height="40" as="geometry">
            <mxRectangle width="60" height="40" as="alternateBounds" />
          </mxGeometry>
        </mxCell>
        <mxCell id="2pr_pSfiqx2FBNgIM7GL-149" style="shape=partialRectangle;html=1;whiteSpace=wrap;connectable=0;strokeColor=inherit;overflow=hidden;fillColor=none;top=0;left=0;bottom=0;right=0;pointerEvents=1;fontSize=16;align=center;verticalAlign=middle;fontFamily=Helvetica;fontColor=default;" vertex="1" parent="2pr_pSfiqx2FBNgIM7GL-125">
          <mxGeometry x="540" width="60" height="40" as="geometry">
            <mxRectangle width="60" height="40" as="alternateBounds" />
          </mxGeometry>
        </mxCell>
        <mxCell id="2pr_pSfiqx2FBNgIM7GL-152" style="shape=partialRectangle;html=1;whiteSpace=wrap;connectable=0;strokeColor=inherit;overflow=hidden;fillColor=none;top=0;left=0;bottom=0;right=0;pointerEvents=1;fontSize=16;align=center;verticalAlign=middle;fontFamily=Helvetica;fontColor=default;" vertex="1" parent="2pr_pSfiqx2FBNgIM7GL-125">
          <mxGeometry x="600" width="60" height="40" as="geometry">
            <mxRectangle width="60" height="40" as="alternateBounds" />
          </mxGeometry>
        </mxCell>
        <mxCell id="2pr_pSfiqx2FBNgIM7GL-155" style="shape=partialRectangle;html=1;whiteSpace=wrap;connectable=0;strokeColor=inherit;overflow=hidden;fillColor=none;top=0;left=0;bottom=0;right=0;pointerEvents=1;fontSize=16;align=center;verticalAlign=middle;fontFamily=Helvetica;fontColor=default;" vertex="1" parent="2pr_pSfiqx2FBNgIM7GL-125">
          <mxGeometry x="660" width="60" height="40" as="geometry">
            <mxRectangle width="60" height="40" as="alternateBounds" />
          </mxGeometry>
        </mxCell>
      </root>
    </mxGraphModel>
  </diagram>
</mxfile>
